<svg width="300" height="300" viewBox="0 0 300 300" fill="none" xmlns="http://www.w3.org/2000/svg">
<g clip-path="url(#clip0_6_336)">
<path d="M300 0H0V300H300V0Z" fill="black"/>
<path d="M150 300C232.843 300 300 232.843 300 150C300 67.1573 232.843 0 150 0C67.1573 0 0 67.1573 0 150C0 232.843 67.1573 300 150 300Z" fill="#181818"/>
<path d="M150 20C150 8.95427 158.993 -0.137085 169.941 1.33134C184.731 3.31513 199.18 7.4999 212.799 13.7785C232.49 22.8562 249.979 36.095 264.061 52.5828C278.143 69.0705 288.483 88.4152 294.368 109.284C300.254 130.153 301.545 152.049 298.153 173.465C294.761 194.881 286.767 215.307 274.72 233.335C262.674 251.364 246.862 266.567 228.375 277.896C209.887 289.225 189.163 296.412 167.631 298.96C152.738 300.723 137.703 300.238 123.024 297.554C112.158 295.568 106.415 284.142 109.828 273.637L149.021 153.013C149.67 151.017 150 148.931 150 146.832V20Z" fill="#FF0099"/>
<path d="M150 278C220.692 278 278 220.692 278 150C278 79.3075 220.692 22 150 22C79.3075 22 22 79.3075 22 150C22 220.692 79.3075 278 150 278Z" fill="black"/>
<path d="M162.73 230.297L149.298 254.672C149.006 255.202 148.199 254.959 148.247 254.357L149.72 236.199H137.762C137.336 236.199 137.064 235.742 137.27 235.367L150.703 210.992C150.995 210.462 151.802 210.705 151.753 211.307L150.281 229.465H162.238C162.665 229.465 162.935 229.922 162.73 230.297Z" fill="white"/>
</g>
<defs>
<clipPath id="clip0_6_336">
<rect width="300" height="300" fill="white"/>
</clipPath>
</defs>
</svg>
