<svg width="300" height="300" viewBox="0 0 300 300" fill="none" xmlns="http://www.w3.org/2000/svg">
<g clip-path="url(#clip0_6_399)">
<path d="M300 0H0V300H300V0Z" fill="black"/>
<path fill-rule="evenodd" clip-rule="evenodd" d="M0 150C0 232.843 67.1573 300 150 300C232.843 300 300 232.843 300 150C300 67.1573 232.843 0 150 0C67.1573 0 0 67.1573 0 150ZM150 0L169.738 31.6154L169.771 31.6209L198.705 8.12763L207.106 44.433L207.143 44.4527L242.132 31.6291L238.287 68.7251L238.288 68.7264L275.575 67.958L259.91 101.76L259.931 101.809L295.41 113.177L269.596 140.084L269.597 140.096L299.487 162.387L266.362 179.441L266.349 179.49L287.366 210.255L250.478 215.631L250.465 215.652L260.358 251.593L223.712 244.698L223.705 244.704L221.392 281.921L189.001 263.52L188.947 263.538L174.689 297.954L150 270L125.31 297.954L111.052 263.538L110.998 263.52L78.6075 281.921L76.2945 244.704L76.2875 244.698L39.6411 251.593L49.535 215.651L49.5221 215.631L12.6336 210.255L33.6504 179.49L33.6382 179.441L0.511969 162.387L30.4029 140.096L30.4038 140.085L4.58961 113.177L40.0687 101.809L40.09 101.76L24.4247 67.958L61.7121 68.7264L57.8678 31.6291L92.8571 44.4528L92.8929 44.4334L101.295 8.12763L130.229 31.621L130.262 31.6156L150 0Z" fill="#FF0099"/>
<path d="M138.78 169.072C138.78 162.795 139.559 157.792 141.117 154.063C142.674 150.334 145.754 146.239 150.356 141.779C154.958 137.318 157.873 134.144 159.1 132.256C160.988 129.377 161.932 126.261 161.932 122.91C161.932 118.473 160.835 115.087 158.64 112.75C156.445 110.414 153.224 109.246 148.976 109.246C144.917 109.246 141.648 110.39 139.17 112.679C136.692 114.968 135.453 118.072 135.453 121.99H118.248C118.343 113.635 121.187 107.027 126.78 102.166C132.373 97.304 139.771 94.873 148.976 94.873C158.463 94.873 165.862 97.2804 171.172 102.095C176.482 106.909 179.137 113.635 179.137 122.273C179.137 129.966 175.55 137.542 168.375 145L159.667 153.567C156.552 157.107 154.947 162.275 154.852 169.072H138.78ZM137.577 191.091C137.577 188.306 138.45 186.053 140.196 184.33C141.943 182.607 144.303 181.746 147.276 181.746C150.297 181.746 152.681 182.631 154.427 184.401C156.174 186.171 157.047 188.401 157.047 191.091C157.047 193.687 156.197 195.858 154.498 197.605C152.799 199.352 150.391 200.225 147.276 200.225C144.161 200.225 141.766 199.352 140.09 197.605C138.415 195.858 137.577 193.687 137.577 191.091Z" fill="white"/>
</g>
<defs>
<clipPath id="clip0_6_399">
<rect width="300" height="300" fill="white"/>
</clipPath>
</defs>
</svg>
