<svg width="300" height="300" viewBox="0 0 300 300" fill="none" xmlns="http://www.w3.org/2000/svg">
<g clip-path="url(#clip0_6_378)">
<path d="M300 0H0V300H300V0Z" fill="black"/>
<path d="M150 300C232.843 300 300 232.843 300 150C300 67.1573 232.843 0 150 0C67.1573 0 0 67.1573 0 150C0 232.843 67.1573 300 150 300Z" fill="#181818"/>
<path d="M150 20C150 8.95434 158.994 -0.137273 169.942 1.33108C200.389 5.41479 229.026 18.7812 251.82 39.8516C279.537 65.4731 296.576 100.602 299.538 138.231C302.499 175.86 291.165 213.222 267.798 242.864C244.43 272.506 210.746 292.249 173.465 298.153C136.185 304.058 98.0487 295.691 66.6647 274.72C35.2807 253.75 12.9562 221.719 4.14482 185.017C-4.66661 148.314 0.682831 109.639 19.1259 76.7068C34.293 49.6239 57.3984 28.0622 85.0934 14.7697C95.0515 9.99028 106.415 15.8576 109.828 26.3626L110.979 29.9051C118.017 51.5659 150 46.5002 150 23.7248V20Z" fill="#FF0099"/>
<path d="M150 278C220.692 278 278 220.692 278 150C278 79.3075 220.692 22 150 22C79.3075 22 22 79.3075 22 150C22 220.692 79.3075 278 150 278Z" fill="black"/>
<path d="M162.73 230.297L149.298 254.672C149.006 255.202 148.199 254.959 148.247 254.357L149.72 236.199H137.762C137.336 236.199 137.064 235.742 137.27 235.367L150.703 210.992C150.995 210.462 151.802 210.705 151.753 211.307L150.281 229.465H162.238C162.665 229.465 162.935 229.922 162.73 230.297Z" fill="white"/>
</g>
<defs>
<clipPath id="clip0_6_378">
<rect width="300" height="300" fill="white"/>
</clipPath>
</defs>
</svg>
