<svg width="300" height="300" viewBox="0 0 300 300" fill="none" xmlns="http://www.w3.org/2000/svg">
<g clip-path="url(#clip0_6_348)">
<path d="M300 0H0V300H300V0Z" fill="black"/>
<path d="M150 300C232.843 300 300 232.843 300 150C300 67.1573 232.843 0 150 0C67.1573 0 0 67.1573 0 150C0 232.843 67.1573 300 150 300Z" fill="#181818"/>
<path d="M150 20C150 8.95428 158.993 -0.1371 169.941 1.33134C188.629 3.83799 206.738 9.85426 223.293 19.1256C245.686 31.666 264.486 49.7423 277.896 71.6252C291.306 93.5082 298.877 118.466 299.884 144.111C300.892 169.756 295.303 195.231 283.651 218.099C271.999 240.966 254.675 260.462 233.336 274.72C211.996 288.979 187.355 297.524 161.769 299.538C136.183 301.551 110.509 296.966 87.2014 286.221C69.9698 278.278 54.4583 267.163 41.446 253.518C33.8231 245.524 35.892 232.905 44.8281 226.412L141.756 155.99C146.935 152.227 150 146.212 150 139.809V20Z" fill="#FF0099"/>
<path d="M150 278C220.692 278 278 220.692 278 150C278 79.3075 220.692 22 150 22C79.3075 22 22 79.3075 22 150C22 220.692 79.3075 278 150 278Z" fill="black"/>
<path d="M162.73 230.297L149.298 254.672C149.006 255.202 148.199 254.959 148.247 254.357L149.72 236.199H137.762C137.336 236.199 137.064 235.742 137.27 235.367L150.703 210.992C150.995 210.462 151.802 210.705 151.753 211.307L150.281 229.465H162.238C162.665 229.465 162.935 229.922 162.73 230.297Z" fill="white"/>
</g>
<defs>
<clipPath id="clip0_6_348">
<rect width="300" height="300" fill="white"/>
</clipPath>
</defs>
</svg>
