<svg width="300" height="300" viewBox="0 0 300 300" fill="none" xmlns="http://www.w3.org/2000/svg">
<g clip-path="url(#clip0_6_395)">
<path d="M300 0H0V300H300V0Z" fill="black"/>
<path d="M150 300C232.843 300 300 232.843 300 150C300 67.1573 232.843 0 150 0C67.1573 0 0 67.1573 0 150C0 232.843 67.1573 300 150 300Z" fill="#FF0099"/>
<path d="M150 278C220.692 278 278 220.692 278 150C278 79.3075 220.692 22 150 22C79.3075 22 22 79.3075 22 150C22 220.692 79.3075 278 150 278Z" fill="black"/>
</g>
<defs>
<clipPath id="clip0_6_395">
<rect width="300" height="300" fill="white"/>
</clipPath>
</defs>
</svg>
