<svg width="300" height="300" viewBox="0 0 300 300" fill="none" xmlns="http://www.w3.org/2000/svg">
<g clip-path="url(#clip0_6_330)">
<path d="M300 0H0V300H300V0Z" fill="black"/>
<path d="M150 300C232.843 300 300 232.843 300 150C300 67.1573 232.843 0 150 0C67.1573 0 0 67.1573 0 150C0 232.843 67.1573 300 150 300Z" fill="#181818"/>
<path d="M150 20.0001C150 8.95439 158.993 -0.136955 169.941 1.33146C182.784 3.05416 195.379 6.43769 207.403 11.4182C225.601 18.9564 242.137 30.0053 256.066 43.9341C269.995 57.8629 281.044 74.3988 288.582 92.5976C296.12 110.796 300 130.302 300 150C300 169.698 296.12 189.204 288.582 207.403C281.044 225.601 269.995 242.137 256.066 256.066C242.137 269.995 225.601 281.044 207.402 288.582C195.379 293.562 182.784 296.946 169.941 298.669C158.993 300.137 150 291.046 150 280V150V20.0001Z" fill="#FF0099"/>
<path d="M150 278C220.692 278 278 220.692 278 150C278 79.3075 220.692 22 150 22C79.3075 22 22 79.3075 22 150C22 220.692 79.3075 278 150 278Z" fill="black"/>
<path d="M162.73 230.297L149.298 254.672C149.006 255.202 148.199 254.959 148.247 254.357L149.72 236.199H137.762C137.336 236.199 137.064 235.742 137.27 235.367L150.703 210.992C150.995 210.462 151.802 210.705 151.753 211.307L150.281 229.465H162.238C162.665 229.465 162.935 229.922 162.73 230.297Z" fill="white"/>
</g>
<defs>
<clipPath id="clip0_6_330">
<rect width="300" height="300" fill="white"/>
</clipPath>
</defs>
</svg>
