<svg width="300" height="300" viewBox="0 0 300 300" fill="none" xmlns="http://www.w3.org/2000/svg">
<g clip-path="url(#clip0_6_318)">
<path d="M300 0H0V300H300V0Z" fill="black"/>
<path d="M150 300C232.843 300 300 232.843 300 150C300 67.1573 232.843 0 150 0C67.1573 0 0 67.1573 0 150C0 232.843 67.1573 300 150 300Z" fill="#181818"/>
<path d="M150 20C150 8.95425 158.994 -0.137222 169.941 1.33122C194.494 4.6245 217.959 13.9648 238.168 28.6474C263.795 47.2666 282.87 73.5209 292.658 103.647C302.447 133.774 302.447 166.226 292.658 196.353C284.939 220.109 271.446 241.458 253.518 258.554C245.524 266.177 232.905 264.108 226.412 255.172L153.82 155.257C151.337 151.84 150 147.725 150 143.502V20Z" fill="#FF0099"/>
<path d="M150 278C220.692 278 278 220.692 278 150C278 79.3075 220.692 22 150 22C79.3075 22 22 79.3075 22 150C22 220.692 79.3075 278 150 278Z" fill="black"/>
<path d="M162.73 230.297L149.298 254.672C149.006 255.202 148.199 254.959 148.247 254.357L149.72 236.199H137.762C137.336 236.199 137.064 235.742 137.27 235.367L150.703 210.992C150.995 210.462 151.802 210.705 151.753 211.307L150.281 229.465H162.238C162.665 229.465 162.935 229.922 162.73 230.297Z" fill="white"/>
</g>
<defs>
<clipPath id="clip0_6_318">
<rect width="300" height="300" fill="white"/>
</clipPath>
</defs>
</svg>
