<svg width="300" height="300" viewBox="0 0 300 300" fill="none" xmlns="http://www.w3.org/2000/svg">
<g clip-path="url(#clip0_6_366)">
<path d="M300 0H0V300H300V0Z" fill="black"/>
<path d="M150 300C232.843 300 300 232.843 300 150C300 67.1573 232.843 0 150 0C67.1573 0 0 67.1573 0 150C0 232.843 67.1573 300 150 300Z" fill="#181818"/>
<path d="M150 20C150 8.9543 158.994 -0.137212 169.942 1.33122C196.455 4.88752 221.666 15.4912 242.864 32.2025C269.324 53.0615 287.99 82.2213 295.855 114.983C303.721 147.745 300.327 182.201 286.221 212.799C272.116 243.397 248.119 268.355 218.099 283.651C188.078 298.947 153.782 303.691 120.736 297.118C87.6911 290.545 57.8209 273.037 35.9392 247.417C14.0574 221.797 1.43847 189.556 0.115704 155.889C-0.944032 128.917 5.29604 102.288 18.0032 78.7477C23.2501 69.0277 35.8918 67.0954 44.8279 73.5879L118.244 126.928C131.465 136.533 150 127.089 150 110.748V20Z" fill="#FF0099"/>
<path d="M150 278C220.692 278 278 220.692 278 150C278 79.3075 220.692 22 150 22C79.3075 22 22 79.3075 22 150C22 220.692 79.3075 278 150 278Z" fill="black"/>
<path d="M162.73 230.297L149.298 254.672C149.006 255.202 148.199 254.959 148.247 254.357L149.72 236.199H137.762C137.336 236.199 137.064 235.742 137.27 235.367L150.703 210.992C150.995 210.462 151.802 210.705 151.753 211.307L150.281 229.465H162.238C162.665 229.465 162.935 229.922 162.73 230.297Z" fill="white"/>
</g>
<defs>
<clipPath id="clip0_6_366">
<rect width="300" height="300" fill="white"/>
</clipPath>
</defs>
</svg>
