<svg width="300" height="300" viewBox="0 0 300 300" fill="none" xmlns="http://www.w3.org/2000/svg">
<g clip-path="url(#clip0_6_360)">
<path d="M300 0H0V300H300V0Z" fill="black"/>
<path d="M150 300C232.843 300 300 232.843 300 150C300 67.1573 232.843 0 150 0C67.1573 0 0 67.1573 0 150C0 232.843 67.1573 300 150 300Z" fill="#181818"/>
<path d="M150 20C150 8.95433 158.994 -0.137104 169.941 1.33134C192.536 4.36204 214.235 12.5169 233.336 25.2796C258.003 41.7618 277.229 65.1886 288.582 92.5975C299.935 120.006 302.906 150.166 297.118 179.264C291.33 208.361 277.044 235.088 256.066 256.066C235.088 277.044 208.361 291.33 179.264 297.118C150.166 302.906 120.006 299.935 92.5972 288.582C65.1883 277.229 41.7615 258.003 25.2793 233.336C12.5166 214.235 4.36168 192.536 1.33098 169.941C-0.13747 158.994 8.95398 150 19.9997 150H130C141.046 150 150 141.046 150 130V20Z" fill="#FF0099"/>
<path d="M150 278C220.692 278 278 220.692 278 150C278 79.3075 220.692 22 150 22C79.3075 22 22 79.3075 22 150C22 220.692 79.3075 278 150 278Z" fill="black"/>
<path d="M162.73 230.297L149.298 254.672C149.006 255.202 148.199 254.959 148.247 254.357L149.72 236.199H137.762C137.336 236.199 137.064 235.742 137.27 235.367L150.703 210.992C150.995 210.462 151.802 210.705 151.753 211.307L150.281 229.465H162.238C162.665 229.465 162.935 229.922 162.73 230.297Z" fill="white"/>
</g>
<defs>
<clipPath id="clip0_6_360">
<rect width="300" height="300" fill="white"/>
</clipPath>
</defs>
</svg>
