<svg width="300" height="300" viewBox="0 0 300 300" fill="none" xmlns="http://www.w3.org/2000/svg">
<g clip-path="url(#clip0_6_342)">
<path d="M300 0H0V300H300V0Z" fill="black"/>
<path d="M150 300C232.843 300 300 232.843 300 150C300 67.1573 232.843 0 150 0C67.1573 0 0 67.1573 0 150C0 232.843 67.1573 300 150 300Z" fill="#181818"/>
<path d="M150 20C150 8.95428 158.993 -0.13709 169.941 1.33134C186.679 3.57643 202.966 8.6387 218.099 16.349C239.19 27.0957 257.439 42.6815 271.353 61.8322C285.266 80.9829 294.45 103.155 298.153 126.535C301.856 149.915 299.973 173.84 292.658 196.353C285.344 218.866 272.804 239.328 256.066 256.066C239.328 272.804 218.866 285.344 196.353 292.658C173.84 299.973 149.915 301.856 126.535 298.153C109.761 295.496 93.6081 290.018 78.7472 281.997C69.0273 276.75 67.0953 264.108 73.5878 255.172L146.18 155.257C148.663 151.84 150 147.725 150 143.502V20Z" fill="#FF0099"/>
<path d="M150 278C220.692 278 278 220.692 278 150C278 79.3075 220.692 22 150 22C79.3075 22 22 79.3075 22 150C22 220.692 79.3075 278 150 278Z" fill="black"/>
<path d="M162.73 230.297L149.298 254.672C149.006 255.202 148.199 254.959 148.247 254.357L149.72 236.199H137.762C137.336 236.199 137.064 235.742 137.27 235.367L150.703 210.992C150.995 210.462 151.802 210.705 151.753 211.307L150.281 229.465H162.238C162.665 229.465 162.935 229.922 162.73 230.297Z" fill="white"/>
</g>
<defs>
<clipPath id="clip0_6_342">
<rect width="300" height="300" fill="white"/>
</clipPath>
</defs>
</svg>
