<svg width="300" height="300" viewBox="0 0 300 300" fill="none" xmlns="http://www.w3.org/2000/svg">
<g clip-path="url(#clip0_6_312)">
<path d="M300 0H0V300H300V0Z" fill="black"/>
<path d="M150 300C232.843 300 300 232.843 300 150C300 67.1573 232.843 0 150 0C67.1573 0 0 67.1573 0 150C0 232.843 67.1573 300 150 300Z" fill="#181818"/>
<path d="M150 19.9999C150 8.95418 158.994 -0.137226 169.941 1.33122C190.581 4.09972 210.494 11.1468 228.375 22.1039C251.962 36.5579 271.092 57.2531 283.651 81.9013C296.21 106.55 301.708 134.191 299.538 161.769C297.892 182.675 291.889 202.927 281.997 221.252C276.75 230.972 264.108 232.905 255.172 226.412L158.244 155.99C153.065 152.227 150 146.212 150 139.809V19.9999Z" fill="#FF0099"/>
<path d="M150 278C220.692 278 278 220.692 278 150C278 79.3075 220.692 22 150 22C79.3075 22 22 79.3075 22 150C22 220.692 79.3075 278 150 278Z" fill="black"/>
<path d="M162.73 230.297L149.298 254.672C149.006 255.202 148.199 254.959 148.247 254.357L149.72 236.199H137.762C137.336 236.199 137.064 235.742 137.27 235.367L150.703 210.992C150.995 210.462 151.802 210.705 151.753 211.307L150.281 229.465H162.238C162.665 229.465 162.935 229.922 162.73 230.297Z" fill="white"/>
</g>
<defs>
<clipPath id="clip0_6_312">
<rect width="300" height="300" fill="white"/>
</clipPath>
</defs>
</svg>
