<svg width="300" height="300" viewBox="0 0 300 300" fill="none" xmlns="http://www.w3.org/2000/svg">
<g clip-path="url(#clip0_6_306)">
<path d="M300 0H0V300H300V0Z" fill="black"/>
<path d="M150 300C232.843 300 300 232.843 300 150C300 67.1573 232.843 0 150 0C67.1573 0 0 67.1573 0 150C0 232.843 67.1573 300 150 300Z" fill="#181818"/>
<path d="M150 20.0001C150 8.9544 158.993 -0.136967 169.941 1.33146C186.679 3.57655 202.966 8.63883 218.099 16.3491C239.19 27.0958 257.439 42.6816 271.353 61.8323C285.266 80.983 294.45 103.155 298.153 126.535C300.81 143.309 300.591 160.364 297.554 176.976C295.568 187.842 284.142 193.585 273.637 190.172L163.82 154.49C155.579 151.813 150 144.134 150 135.469V20.0001Z" fill="#FF0099"/>
<path d="M150 278C220.692 278 278 220.692 278 150C278 79.3075 220.692 22 150 22C79.3075 22 22 79.3075 22 150C22 220.692 79.3075 278 150 278Z" fill="black"/>
<path d="M162.73 230.297L149.298 254.672C149.006 255.202 148.199 254.959 148.247 254.357L149.72 236.199H137.762C137.336 236.199 137.064 235.742 137.27 235.367L150.703 210.992C150.995 210.462 151.802 210.705 151.753 211.307L150.281 229.465H162.238C162.665 229.465 162.935 229.922 162.73 230.297Z" fill="white"/>
</g>
<defs>
<clipPath id="clip0_6_306">
<rect width="300" height="300" fill="white"/>
</clipPath>
</defs>
</svg>
